<svg id="Layer_1" data-name="Layer 1" xmlns="http://www.w3.org/2000/svg" viewBox="0 0 6094.66 2757.79"><defs><style>.cls-1{fill:#19171f;}.cls-2{fill:#4eb84f;}.cls-3{fill:#ed3831;}.cls-4{fill:#f27d37;}.cls-5{fill:#fbe933;}.cls-6{fill:#49c2f0;}.cls-7{fill:#231f20;}</style></defs><path class="cls-1" d="M140.18,1021.73" transform="translate(-188.38 -187.81)"/><path class="cls-2" d="M677.25,464.11h852.24c-138.24-168.29-349.4-276.3-585.91-276.3A757.72,757.72,0,0,0,677.9,235.55V464.11Z" transform="translate(-188.38 -187.81)"/><path class="cls-3" d="M1433.1,960.82H188.38c4.43,140.65,48.83,271.26,121.1,381.81H1433.1Z" transform="translate(-188.38 -187.81)"/><path class="cls-4" d="M1569.43,518.12H1112.88v388.7h584.64A740.69,740.69,0,0,0,1569.43,518.12Z" transform="translate(-188.38 -187.81)"/><path class="cls-5" d="M1488.28,960.82v436.43H677.9v239.23a759.86,759.86,0,0,0,265.68,47.71c408.36,0,741.26-321.49,754.57-722.73H1488.28Z" transform="translate(-188.38 -187.81)"/><path class="cls-6" d="M622.73,906.82v-648C374.15,374.33,199.78,619.84,189,906.82Z" transform="translate(-188.38 -187.81)"/><path class="cls-7" d="M2341.16,800.52V492.2L2219.94,721.8h-49.68L2049,492.2V800.52h-91.42V334.76h98l139.11,265,140.43-265h97.38V800.52Z" transform="translate(-188.38 -187.81)"/><path class="cls-7" d="M2522,408.89V321.64h88.76v87.25Zm0,391.63V456.77h88.76V800.52Z" transform="translate(-188.38 -187.81)"/><path class="cls-7" d="M2822.07,807.08a270.7,270.7,0,0,1-85.45-13.78q-41.73-13.77-71.54-39.36l33.12-55.1q31.78,22.3,61.93,33.78a167.33,167.33,0,0,0,59.95,11.48q26.49,0,41.73-9.84t15.24-28.2q0-18.36-17.88-26.9t-58.3-19.68q-33.78-9.18-57.63-17.71t-38.42-19.35q-14.58-10.83-21.2-24.93T2677,563.7q0-26.22,10.27-47.23a103,103,0,0,1,28.81-35.75,133.64,133.64,0,0,1,43.39-22.63,177.77,177.77,0,0,1,54-7.88q39.08,0,73.2,11.16a178.87,178.87,0,0,1,62.59,36.08l-35.77,53.13q-26.49-19.68-51.33-28.86a141.64,141.64,0,0,0-49.35-9.18q-22.53,0-37.76,9.18t-15.24,29.52q0,9.19,3.65,15.09c2.42,3.93,6.29,7.44,11.59,10.49a112.91,112.91,0,0,0,20.86,8.86q12.92,4.27,32.13,8.86,35.78,9.18,61.27,18.36t41.74,21q16.22,11.8,23.85,27.22t7.61,37.06q0,50.52-37.75,79.71T2822.07,807.08Z" transform="translate(-188.38 -187.81)"/><path class="cls-7" d="M3151.29,807.08a270.7,270.7,0,0,1-85.45-13.78q-41.74-13.77-71.54-39.36l33.12-55.1q31.78,22.3,61.93,33.78a167.33,167.33,0,0,0,60,11.48q26.49,0,41.73-9.84t15.24-28.2q0-18.36-17.88-26.9t-58.3-19.68q-33.78-9.18-57.63-17.71T3034,622.42q-14.58-10.83-21.2-24.93t-6.62-33.79q0-26.22,10.27-47.23a103,103,0,0,1,28.81-35.75,133.64,133.64,0,0,1,43.39-22.63,177.77,177.77,0,0,1,54-7.88q39.08,0,73.2,11.16a178.87,178.87,0,0,1,62.59,36.08l-35.77,53.13q-26.49-19.68-51.33-28.86a141.69,141.69,0,0,0-49.36-9.18q-22.52,0-37.75,9.18T3089,551.24q0,9.19,3.65,15.09c2.42,3.93,6.29,7.44,11.59,10.49a112.91,112.91,0,0,0,20.86,8.86q12.91,4.27,32.13,8.86,35.77,9.18,61.27,18.36t41.74,21q16.22,11.8,23.84,27.22t7.62,37.06q0,50.52-37.75,79.71T3151.29,807.08Z" transform="translate(-188.38 -187.81)"/><path class="cls-7" d="M3349.35,408.89V321.64h88.76v87.25Zm0,391.63V456.77h88.76V800.52Z" transform="translate(-188.38 -187.81)"/><path class="cls-7" d="M3840.86,800.52H3752.1V607.66q0-41.34-14.58-60.36t-40.41-19a76.59,76.59,0,0,0-27.15,5.25,100.23,100.23,0,0,0-26.17,14.76,120.33,120.33,0,0,0-22.19,22.63A89.09,89.09,0,0,0,3607,599.78V800.52h-88.76V456.77h80.15v63.64q19.22-32.8,55.65-51.17t82.14-18.37q32.45,0,53,11.81t31.8,30.83a128.38,128.38,0,0,1,15.56,43.3,281.16,281.16,0,0,1,4.31,49.2Z" transform="translate(-188.38 -187.81)"/><path class="cls-7" d="M4054.15,802.49q-35.12,0-63.59-13.78A153.26,153.26,0,0,1,3941.21,751a171.25,171.25,0,0,1-32.13-55.43,197.15,197.15,0,0,1-11.26-66.91q0-37.39,11.92-69.54a180.13,180.13,0,0,1,33.13-56.42,150.94,150.94,0,0,1,51-38q29.82-13.78,65.58-13.78,40.4,0,70.88,18a153.15,153.15,0,0,1,50.35,48.22V456.77h77.5V784.12q0,38-14.57,68.22a150.16,150.16,0,0,1-40.08,51.17q-25.51,21-60.94,32.15t-77.18,11.15q-57,0-95.72-18.7a193.7,193.7,0,0,1-66.57-52.81l48.36-46.57a137.32,137.32,0,0,0,50,38,151.87,151.87,0,0,0,63.92,13.78,138.74,138.74,0,0,0,39.42-5.57,95.82,95.82,0,0,0,33.45-17.39,81,81,0,0,0,22.85-30.17q8.28-18.37,8.28-43.3v-43.3a116.74,116.74,0,0,1-48.35,45.6A143.74,143.74,0,0,1,4054.15,802.49Zm29.81-70.2a84.17,84.17,0,0,0,27.82-4.59,99.29,99.29,0,0,0,44.39-30.83,82.93,82.93,0,0,0,13.24-22.3v-82A106.9,106.9,0,0,0,4132,544q-25.52-18.36-53.33-18.37-20.53,0-37.09,8.86a92.17,92.17,0,0,0-28.49,23.62,106.26,106.26,0,0,0-18.21,33.78,124.17,124.17,0,0,0-6.3,39.36,105.67,105.67,0,0,0,7.29,39.36,100.61,100.61,0,0,0,20.2,32.14,95.2,95.2,0,0,0,30.14,21.65A89.72,89.72,0,0,0,4084,732.29Z" transform="translate(-188.38 -187.81)"/><path class="cls-7" d="M2341.16,1408.52V1100.2l-121.22,229.6h-49.68L2049,1100.2v308.32h-91.42V942.76h98l139.11,265,140.43-265h97.38v465.76Z" transform="translate(-188.38 -187.81)"/><path class="cls-7" d="M2613.42,1415.08a132.92,132.92,0,0,1-47-8.2,113.09,113.09,0,0,1-37.76-23,106.85,106.85,0,0,1-24.84-34.44,103.45,103.45,0,0,1-8.94-43.3,94.58,94.58,0,0,1,10.93-44.93,103.28,103.28,0,0,1,30.47-35.1q19.53-14.42,46.7-22.63t59.62-8.2a259.76,259.76,0,0,1,45.37,3.93,186.86,186.86,0,0,1,39.42,11.16v-19.68q0-34.11-19.55-52.48t-58-18.37a154.83,154.83,0,0,0-54.32,9.84q-26.49,9.84-54.31,28.86l-27.16-55.76q66.9-43.93,144.4-44,74.85,0,116.26,36.41t41.4,105.29v106.92q0,13.79,5,19.68t16.23,6.56v74.79q-22.53,4.57-39.08,4.59-25.18,0-38.76-11.15t-16.89-29.52l-2-19a153.21,153.21,0,0,1-56.3,45.91A163,163,0,0,1,2613.42,1415.08Zm25.17-64.29a116.68,116.68,0,0,0,42.73-7.87q20.19-7.87,31.46-21,14.56-11.15,14.58-24.93v-39.36a219.3,219.3,0,0,0-34.45-9.51,187.77,187.77,0,0,0-35.77-3.61q-34.45,0-56.31,15.41T2579,1299q0,22.3,17.23,37.06T2638.59,1350.79Z" transform="translate(-188.38 -187.81)"/><path class="cls-7" d="M3106.92,1415.08q-41.09,0-71.54-18a128.78,128.78,0,0,1-47.7-48.87v200.08h-88.76V1064.77h77.5v59a141.07,141.07,0,0,1,49.68-47.56q30.46-17.37,70.22-17.38,35.1,0,64.92,14.1a160.78,160.78,0,0,1,51.33,38q21.53,24,33.79,56.42a192.74,192.74,0,0,1,12.25,68.55,214.85,214.85,0,0,1-11.26,70.19q-11.26,32.82-31.46,57.07a146.42,146.42,0,0,1-48,38Q3140,1415.09,3106.92,1415.08Zm-29.81-74.79a80.32,80.32,0,0,0,36.76-8.52,89,89,0,0,0,28.82-23,107.44,107.44,0,0,0,18.55-33.46,119.24,119.24,0,0,0,6.62-39.36,110.05,110.05,0,0,0-7.29-40.34,100.08,100.08,0,0,0-20.2-32.48,94.13,94.13,0,0,0-30.47-21.64,92,92,0,0,0-38.09-7.88,84.2,84.2,0,0,0-25.84,4.27,91.7,91.7,0,0,0-24.5,12.13,106.83,106.83,0,0,0-20.21,18.37,76.31,76.31,0,0,0-13.58,23v80.69a116.85,116.85,0,0,0,36.43,48.87Q3048.62,1340.3,3077.11,1340.29Z" transform="translate(-188.38 -187.81)"/><path class="cls-7" d="M3450,1415.08a270.75,270.75,0,0,1-85.45-13.78q-41.73-13.77-71.54-39.36l33.12-55.1q31.8,22.31,61.94,33.78a167.29,167.29,0,0,0,59.95,11.48q26.47,0,41.73-9.84t15.24-28.21q0-18.35-17.89-26.89t-58.29-19.68q-33.79-9.18-57.63-17.71t-38.42-19.35q-14.58-10.83-21.2-24.93T3305,1171.7q0-26.22,10.27-47.23a103,103,0,0,1,28.82-35.75,133.64,133.64,0,0,1,43.39-22.63,177.7,177.7,0,0,1,54-7.88q39.08,0,73.2,11.16a178.91,178.91,0,0,1,62.6,36.08l-35.77,53.13q-26.51-19.68-51.34-28.86a141.64,141.64,0,0,0-49.35-9.18q-22.53,0-37.76,9.18t-15.23,29.52q0,9.19,3.64,15.09c2.42,3.93,6.29,7.44,11.59,10.49a113,113,0,0,0,20.87,8.86q12.91,4.27,32.13,8.85,35.76,9.2,61.27,18.37t41.73,21q16.23,11.82,23.85,27.23t7.62,37.06q0,50.52-37.76,79.71T3450,1415.08Z" transform="translate(-188.38 -187.81)"/><text x="-188.38" y="-187.81"/><text x="-188.38" y="-187.81"/></svg>